<svg width="92" height="17" viewBox="0 0 92 17" fill="none" xmlns="http://www.w3.org/2000/svg">
<path d="M3.95987 16H0.499645L5.77202 0.727272H9.93324L15.1982 16H11.7379L7.91229 4.21733H7.79297L3.95987 16ZM3.74361 9.9968H11.9169V12.5174H3.74361V9.9968ZM20.6644 16.1864C19.7944 16.1864 19.0064 15.9627 18.3004 15.5153C17.5994 15.0629 17.0426 14.3991 16.63 13.5241C16.2223 12.6442 16.0185 11.5653 16.0185 10.2876C16.0185 8.97514 16.2298 7.88388 16.6523 7.01385C17.0749 6.13885 17.6367 5.48509 18.3377 5.05256C19.0437 4.61506 19.8168 4.39631 20.657 4.39631C21.2983 4.39631 21.8327 4.50568 22.2603 4.72443C22.6928 4.93821 23.0408 5.20668 23.3043 5.52983C23.5728 5.84801 23.7766 6.16122 23.9158 6.46946H24.0128V0.727272H27.1822V16H24.0501V14.1655H23.9158C23.7667 14.4837 23.5554 14.7994 23.282 15.1126C23.0135 15.4208 22.663 15.6768 22.2305 15.8807C21.8029 16.0845 21.2809 16.1864 20.6644 16.1864ZM21.6712 13.6584C22.1832 13.6584 22.6158 13.5192 22.9688 13.2408C23.3267 12.9574 23.6001 12.5621 23.7891 12.055C23.983 11.5479 24.0799 10.9538 24.0799 10.2727C24.0799 9.59162 23.9854 9 23.7965 8.49787C23.6076 7.99574 23.3342 7.60795 22.9762 7.33452C22.6183 7.06108 22.1832 6.92436 21.6712 6.92436C21.1491 6.92436 20.7092 7.06605 20.3512 7.34943C19.9933 7.63281 19.7223 8.02557 19.5384 8.5277C19.3544 9.02983 19.2624 9.61151 19.2624 10.2727C19.2624 10.9389 19.3544 11.5281 19.5384 12.0401C19.7273 12.5472 19.9982 12.945 20.3512 13.2333C20.7092 13.5167 21.1491 13.6584 21.6712 13.6584ZM34.015 16.1864C33.145 16.1864 32.357 15.9627 31.651 15.5153C30.95 15.0629 30.3932 14.3991 29.9806 13.5241C29.5729 12.6442 29.3691 11.5653 29.3691 10.2876C29.3691 8.97514 29.5803 7.88388 30.0029 7.01385C30.4255 6.13885 30.9873 5.48509 31.6883 5.05256C32.3943 4.61506 33.1673 4.39631 34.0075 4.39631C34.6489 4.39631 35.1833 4.50568 35.6109 4.72443C36.0434 4.93821 36.3914 5.20668 36.6549 5.52983C36.9234 5.84801 37.1272 6.16122 37.2664 6.46946H37.3634V0.727272H40.5328V16H37.4007V14.1655H37.2664C37.1173 14.4837 36.906 14.7994 36.6325 15.1126C36.3641 15.4208 36.0136 15.6768 35.5811 15.8807C35.1535 16.0845 34.6315 16.1864 34.015 16.1864ZM35.0218 13.6584C35.5338 13.6584 35.9664 13.5192 36.3193 13.2408C36.6773 12.9574 36.9507 12.5621 37.1396 12.055C37.3335 11.5479 37.4305 10.9538 37.4305 10.2727C37.4305 9.59162 37.336 9 37.1471 8.49787C36.9582 7.99574 36.6847 7.60795 36.3268 7.33452C35.9688 7.06108 35.5338 6.92436 35.0218 6.92436C34.4997 6.92436 34.0597 7.06605 33.7018 7.34943C33.3438 7.63281 33.0729 8.02557 32.8889 8.5277C32.705 9.02983 32.613 9.61151 32.613 10.2727C32.613 10.9389 32.705 11.5281 32.8889 12.0401C33.0779 12.5472 33.3488 12.945 33.7018 13.2333C34.0597 13.5167 34.4997 13.6584 35.0218 13.6584ZM54.0977 4.54545V6.93182H47.1997V4.54545H54.0977ZM48.7657 1.80114H51.9426V12.4801C51.9426 12.7734 51.9873 13.0021 52.0768 13.1662C52.1663 13.3253 52.2906 13.4371 52.4497 13.5018C52.6137 13.5664 52.8026 13.5987 53.0164 13.5987C53.1656 13.5987 53.3147 13.5863 53.4639 13.5614C53.613 13.5316 53.7274 13.5092 53.8069 13.4943L54.3066 15.8583C54.1475 15.908 53.9237 15.9652 53.6354 16.0298C53.347 16.0994 52.9965 16.1417 52.5839 16.1566C51.8183 16.1864 51.1471 16.0845 50.5704 15.8509C49.9987 15.6172 49.5537 15.2543 49.2355 14.7621C48.9173 14.2699 48.7607 13.6484 48.7657 12.8977V1.80114ZM59.4335 16.2163C58.7027 16.2163 58.0514 16.0895 57.4797 15.8359C56.9079 15.5774 56.4555 15.1971 56.1224 14.695C55.7943 14.1879 55.6302 13.5565 55.6302 12.8008C55.6302 12.1644 55.7471 11.63 55.9807 11.1974C56.2144 10.7649 56.5326 10.4169 56.9353 10.1534C57.338 9.88991 57.7954 9.69105 58.3074 9.55682C58.8245 9.42259 59.3664 9.32812 59.9332 9.27344C60.5993 9.20384 61.1363 9.1392 61.5439 9.07955C61.9516 9.01491 62.2474 8.92045 62.4314 8.79616C62.6153 8.67187 62.7073 8.48793 62.7073 8.24432V8.19957C62.7073 7.72727 62.5582 7.36186 62.2599 7.10334C61.9665 6.84481 61.5489 6.71555 61.007 6.71555C60.4353 6.71555 59.9804 6.84233 59.6423 7.09588C59.3042 7.34446 59.0805 7.65767 58.9711 8.03551L56.0329 7.79688C56.1821 7.10085 56.4754 6.49929 56.9129 5.99219C57.3504 5.48011 57.9147 5.08736 58.6057 4.81392C59.3018 4.53551 60.1072 4.39631 61.0219 4.39631C61.6583 4.39631 62.2673 4.47088 62.849 4.62003C63.4356 4.76918 63.9552 5.00035 64.4076 5.31356C64.865 5.62678 65.2254 6.02947 65.4889 6.52166C65.7524 7.00888 65.8841 7.59304 65.8841 8.27415V16H62.8714V14.4116H62.7819C62.5979 14.7695 62.3518 15.0852 62.0436 15.3587C61.7354 15.6271 61.365 15.8384 60.9324 15.9925C60.4999 16.1417 60.0003 16.2163 59.4335 16.2163ZM60.3433 14.0238C60.8106 14.0238 61.2233 13.9318 61.5812 13.7479C61.9392 13.5589 62.2201 13.3054 62.4239 12.9872C62.6278 12.669 62.7297 12.3086 62.7297 11.9059V10.6903C62.6302 10.755 62.4935 10.8146 62.3195 10.8693C62.1505 10.919 61.9591 10.9663 61.7453 11.011C61.5315 11.0508 61.3177 11.0881 61.104 11.1229C60.8902 11.1527 60.6963 11.18 60.5223 11.2049C60.1494 11.2596 59.8238 11.3466 59.5454 11.4659C59.267 11.5852 59.0507 11.7468 58.8966 11.9506C58.7425 12.1495 58.6654 12.3981 58.6654 12.6964C58.6654 13.1289 58.822 13.4595 59.1352 13.6882C59.4534 13.9119 59.8561 14.0238 60.3433 14.0238ZM77.8794 7.81179L74.971 7.99077C74.9213 7.74219 74.8144 7.51847 74.6503 7.3196C74.4862 7.11577 74.27 6.95419 74.0015 6.83487C73.738 6.71058 73.4223 6.64844 73.0544 6.64844C72.5622 6.64844 72.1471 6.75284 71.809 6.96165C71.471 7.16548 71.3019 7.43892 71.3019 7.78196C71.3019 8.0554 71.4113 8.28658 71.6301 8.4755C71.8488 8.66442 72.2242 8.81605 72.7561 8.9304L74.8293 9.34801C75.9429 9.5767 76.7732 9.9446 77.32 10.4517C77.8669 10.9588 78.1404 11.625 78.1404 12.4503C78.1404 13.201 77.9191 13.8597 77.4767 14.4265C77.0392 14.9933 76.4376 15.4357 75.672 15.7539C74.9113 16.0671 74.0338 16.2237 73.0395 16.2237C71.5232 16.2237 70.3151 15.908 69.4152 15.2766C68.5203 14.6403 67.9958 13.7752 67.8417 12.6815L70.9664 12.5174C71.0608 12.9798 71.2895 13.3327 71.6524 13.5763C72.0154 13.815 72.4802 13.9343 73.047 13.9343C73.6038 13.9343 74.0512 13.8274 74.3893 13.6136C74.7323 13.3949 74.9063 13.114 74.9113 12.771C74.9063 12.4826 74.7845 12.2464 74.5459 12.0625C74.3073 11.8736 73.9394 11.7294 73.4422 11.63L71.4585 11.2347C70.3399 11.011 69.5072 10.6232 68.9603 10.0714C68.4184 9.51953 68.1475 8.81605 68.1475 7.96094C68.1475 7.22514 68.3463 6.59126 68.7441 6.0593C69.1468 5.52734 69.711 5.11719 70.4369 4.82883C71.1677 4.54048 72.0228 4.39631 73.0022 4.39631C74.449 4.39631 75.5874 4.70206 76.4177 5.31356C77.2529 5.92507 77.7401 6.75781 77.8794 7.81179ZM83.0194 12.7038L83.0268 8.89311H83.4892L87.1582 4.54545H90.8049L85.8755 10.3026H85.1223L83.0194 12.7038ZM80.1408 16V0.727272H83.3176V16H80.1408ZM87.2999 16L83.9292 11.011L86.0471 8.76633L91.0211 16H87.2999Z" fill="white"/>
</svg>
